<?xml version="1.0" encoding="UTF-8"?>
<svg width="542px" height="177px" viewBox="0 0 542 177" version="1.1" xmlns="http://www.w3.org/2000/svg" xmlns:xlink="http://www.w3.org/1999/xlink">
    <!-- Generator: Sketch 52.6 (67491) - http://www.bohemiancoding.com/sketch -->
    <title>step-3</title>
    <desc>Created with Sketch.</desc>
    <g id="Page-1" stroke="none" stroke-width="1" fill="none" fill-rule="evenodd">
        <g id="step-3" transform="translate(1.000000, 1.000000)">
            <rect id="Rectangle-4-Copy-2" stroke="#FFFFFF" fill="#FFFFFF" x="0" y="0" width="540" height="175"></rect>
            <circle id="Oval" stroke="#C1C1C2" stroke-width="3" cx="270" cy="84" r="78"></circle>
            <g id="Group" opacity="0.300000012" transform="translate(237.000000, 44.000000)">
                <path d="M63,23.5 C63,30.4035364 57.403074,36 50.5002979,36 C43.596926,36 38,30.4035364 38,23.5 C38,16.5964636 43.596926,11 50.5002979,11 C57.403074,11 63,16.5964636 63,23.5" id="Fill-1" fill="#FFFFFF"></path>
                <path d="M63,23.5 C63,30.4035364 57.403074,36 50.5002979,36 C43.596926,36 38,30.4035364 38,23.5 C38,16.5964636 43.596926,11 50.5002979,11 C57.403074,11 63,16.5964636 63,23.5 Z" id="Stroke-3" stroke="#2F3132" stroke-width="3"></path>
                <polygon id="Fill-5" fill="#2F3132" points="48 26.2366231 53.2263014 20 54 20.7627824 48.7736986 27"></polygon>
                <path d="M48.5002622,20.9998253 C48.7760881,20.9998253 49,21.2247466 49,21.5 C49,21.7752534 48.7760881,22.0001747 48.5002622,22.0001747 C48.2239119,22.0001747 48,21.7752534 48,21.5 C48,21.2247466 48.2239119,20.9998253 48.5002622,20.9998253 M48.5002622,23 C49.3272155,23 50,22.3268088 50,21.5 C50,20.6731912 49.3272155,20 48.5002622,20 C47.6727845,20 47,20.6731912 47,21.5 C47,22.3268088 47.6727845,23 48.5002622,23" id="Fill-7" fill="#2F3132" fill-rule="nonzero"></path>
                <path d="M53.9996505,24.5 C53.9996505,24.7752534 53.7757777,24.9996505 53.5,24.9996505 C53.2242223,24.9996505 52.9998253,24.7752534 52.9998253,24.5 C52.9998253,24.2247466 53.2242223,23.9998252 53.5,23.9998252 C53.7757777,23.9998252 53.9996505,24.2247466 53.9996505,24.5 M52,24.5 C52,25.3268088 52.6726669,26 53.5,26 C54.3268088,26 55,25.3268088 55,24.5 C55,23.6726669 54.3268088,23 53.5,23 C52.6726669,23 52,23.6726669 52,24.5" id="Fill-9" fill="#2F3132" fill-rule="nonzero"></path>
                <path d="M27.0997899,73 L19.0565229,73 C-23.673591,73 18.8052627,15.3687366 18.8052627,15.3687366 L8.75073753,0 L27.3516386,0 L27.6493847,0 L46.249109,0 L36.1951722,15.3687366 C36.1951722,15.3687366 78.6734375,73 35.9433235,73 L27.9000565,73 L27.0997899,73 Z" id="Fill-11" fill="#FFFFFF"></path>
                <path d="M27.0997899,73 L19.0565229,73 C-23.673591,73 18.8052627,15.3687366 18.8052627,15.3687366 L8.75073753,0 L27.3516386,0 L27.6493847,0 L46.249109,0 L36.1951722,15.3687366 C36.1951722,15.3687366 78.6734375,73 35.9433235,73 L27.9000565,73 L27.0997899,73 Z" id="Stroke-13" stroke="#2F3132" stroke-width="3"></path>
                <path d="M63.6730769,78 L45.3269231,78 C42.9475646,78 41,75.9751554 41,73.5000003 C41,71.0254669 42.9475646,69 45.3269231,69 L63.6730769,69 C66.0530344,69 68,71.0254669 68,73.5000003 C68,75.9751554 66.0530344,78 63.6730769,78" id="Fill-15" fill="#FFFFFF"></path>
                <path d="M63.6730769,78 L45.3269231,78 C42.9475646,78 41,75.9751554 41,73.5000003 C41,71.0254669 42.9475646,69 45.3269231,69 L63.6730769,69 C66.0530344,69 68,71.0254669 68,73.5000003 C68,75.9751554 66.0530344,78 63.6730769,78 Z" id="Stroke-17" stroke="#2F3132" stroke-width="3"></path>
                <path d="M63.6730769,69 L45.3269231,69 C42.9475646,69 41,66.9750156 41,64.4996885 C41,62.0249844 42.9475646,60 45.3269231,60 L63.6730769,60 C66.0530344,60 68,62.0249844 68,64.4996885 C68,66.9750156 66.0530344,69 63.6730769,69" id="Fill-19" fill="#FFFFFF"></path>
                <path d="M63.6730769,69 L45.3269231,69 C42.9475646,69 41,66.9750156 41,64.4996885 C41,62.0249844 42.9475646,60 45.3269231,60 L63.6730769,60 C66.0530344,60 68,62.0249844 68,64.4996885 C68,66.9750156 66.0530344,69 63.6730769,69 Z" id="Stroke-21" stroke="#2F3132" stroke-width="3"></path>
                <path d="M63.6730769,61 L45.3269231,61 C42.9475646,61 41,58.9745329 41,56.4993772 C41,54.0248443 42.9475646,52 45.3269231,52 L63.6730769,52 C66.0530344,52 68,54.0248443 68,56.4993772 C68,58.9745329 66.0530344,61 63.6730769,61" id="Fill-23" fill="#FFFFFF"></path>
                <path d="M63.6730769,61 L45.3269231,61 C42.9475646,61 41,58.9745329 41,56.4993772 C41,54.0248443 42.9475646,52 45.3269231,52 L63.6730769,52 C66.0530344,52 68,54.0248443 68,56.4993772 C68,58.9745329 66.0530344,61 63.6730769,61 Z" id="Stroke-25" stroke="#2F3132" stroke-width="3"></path>
                <path d="M63.6730769,43 L45.3269231,43 C42.9475646,43 41,40.9751557 41,38.5 C41,36.0254671 42.9475646,34 45.3269231,34 L63.6730769,34 C66.0530344,34 68,36.0254671 68,38.5 C68,40.9751557 66.0530344,43 63.6730769,43" id="Fill-27" fill="#FFFFFF"></path>
                <path d="M63.6730769,43 L45.3269231,43 C42.9475646,43 41,40.9751557 41,38.5 C41,36.0254671 42.9475646,34 45.3269231,34 L63.6730769,34 C66.0530344,34 68,36.0254671 68,38.5 C68,40.9751557 66.0530344,43 63.6730769,43 Z" id="Stroke-29" stroke="#2F3132" stroke-width="3"></path>
                <path d="M71.6730772,52 L53.326923,52 C50.9469656,52 49,49.9751557 49,47.4993772 C49,45.0248443 50.9469656,43 53.326923,43 L71.6730772,43 C74.0530347,43 76,45.0248443 76,47.4993772 C76,49.9751557 74.0530347,52 71.6730772,52" id="Fill-31" fill="#FFFFFF"></path>
                <path d="M71.6730772,52 L53.326923,52 C50.9469656,52 49,49.9751557 49,47.4993772 C49,45.0248443 50.9469656,43 53.326923,43 L71.6730772,43 C74.0530347,43 76,45.0248443 76,47.4993772 C76,49.9751557 74.0530347,52 71.6730772,52 Z" id="Stroke-33" stroke="#2F3132" stroke-width="3"></path>
                <g id="Group-38" transform="translate(18.000000, 15.000000)">
                    <path d="M0.273531834,0.542683077 L17.5986064,0.542683077" id="Fill-35" fill="#FFFFFF"></path>
                    <path d="M0.273531834,0.542683077 L17.5986064,0.542683077" id="Stroke-37" stroke="#2F3132" stroke-width="3" stroke-linecap="square" stroke-linejoin="bevel"></path>
                </g>
                <g id="Group-42" transform="translate(19.000000, 5.000000)">
                    <path d="M0.478089231,0.0700775383 L5.44572,6.76784984" id="Fill-39" fill="#FFFFFF"></path>
                    <path d="M0.478089231,0.0700775383 L5.44572,6.76784984" id="Stroke-41" stroke="#2F3132" stroke-width="3" stroke-linecap="round" stroke-linejoin="round"></path>
                </g>
                <g id="Group-46" transform="translate(31.000000, 5.000000)">
                    <path d="M4.97089231,0.0700775383 L0.239815384,6.76784984" id="Fill-43" fill="#FFFFFF"></path>
                    <path d="M4.97089231,0.0700775383 L0.239815384,6.76784984" id="Stroke-45" stroke="#2F3132" stroke-width="3" stroke-linecap="round" stroke-linejoin="round"></path>
                </g>
                <g id="Group-50" transform="translate(26.000000, 4.000000)">
                    <path d="M1.35219692,8.54389845 L1.35219692,0.263436923" id="Fill-47" fill="#FFFFFF"></path>
                    <path d="M1.35219692,8.54389845 L1.35219692,0.263436923" id="Stroke-49" stroke="#2F3132" stroke-width="3" stroke-linecap="round" stroke-linejoin="round"></path>
                </g>
                <path d="M28.0137018,46.5130327 L25.9862982,46.5130327 C24.8320947,46.5130327 23.8921273,45.5333314 23.8921273,44.3289891 C23.8921273,43.1240413 24.8320947,42.14434 25.9862982,42.14434 L30.0405249,42.14434 C30.5630516,42.14434 30.9868788,41.7029295 30.9868788,41.1579782 C30.9868788,40.6130269 30.5630516,40.1710109 30.0405249,40.1710109 L27.9463539,40.1710109 L27.9463539,37.9869673 C27.9463539,37.442016 27.5225267,37 27,37 C26.4774733,37 26.053646,37.442016 26.053646,37.9869673 L26.053646,40.1710109 L25.9868788,40.1710109 C23.7882025,40.1710109 22,42.0359552 22,44.3289891 C22,46.6214175 23.7882025,48.4869673 25.9868788,48.4869673 L28.0137018,48.4869673 C29.1679053,48.4869673 30.1072921,49.4666686 30.1072921,50.6704054 C30.1072921,51.8747477 29.1679053,52.8550544 28.0137018,52.8550544 L23.9600558,52.8550544 C23.4369484,52.8550544 23.0137018,53.296465 23.0137018,53.8420217 C23.0137018,54.3869731 23.4369484,54.8283836 23.9600558,54.8283836 L26.053646,54.8283836 L26.053646,57.0130327 C26.053646,57.557984 26.4774733,58 27,58 C27.5225267,58 27.9463539,57.557984 27.9463539,57.0130327 L27.9463539,54.8283836 L28.0137018,54.8283836 C30.2117975,54.8283836 32,52.9634392 32,50.6704054 C32,48.3779771 30.2117975,46.5130327 28.0137018,46.5130327" id="Fill-51" fill="#2F3132"></path>
            </g>
            <g id="Group-2" transform="translate(254.000000, 144.000000)">
                <circle id="Oval" fill="#C1C1C2" cx="15.5" cy="15.5" r="15.5"></circle>
                <path d="M9.88125,20.94825 L12.1365,19.065 C12.81075,20.01825 13.92675,20.6925 15.159,20.6925 C16.6935,20.6925 18.20475,19.4835 18.20475,17.73975 C18.20475,16.0425 16.80975,14.76375 14.99625,14.76375 C14.34525,14.76375 13.64775,14.9265 13.04325,15.22875 L13.04325,13.36875 L16.089,9.765 L10.6485,9.765 L10.6485,6.975 L20.52975,6.975 L20.52975,8.835 L17.577,12.462 C19.809,13.32225 21.3435,15.27525 21.3435,17.73975 C21.3435,21.18075 18.6465,23.4825 15.27525,23.4825 C13.2525,23.4825 11.32275,22.57575 9.88125,20.94825 Z" id="3" fill="#FFFFFF"></path>
            </g>
        </g>
    </g>
</svg>