<?xml version="1.0" encoding="UTF-8"?>
<svg width="542px" height="177px" viewBox="0 0 542 177" version="1.1" xmlns="http://www.w3.org/2000/svg" xmlns:xlink="http://www.w3.org/1999/xlink">
    <!-- Generator: Sketch 52.6 (67491) - http://www.bohemiancoding.com/sketch -->
    <title>step-1</title>
    <desc>Created with Sketch.</desc>
    <g id="Page-1" stroke="none" stroke-width="1" fill="none" fill-rule="evenodd">
        <g id="step-1" transform="translate(1.000000, 1.000000)">
            <rect id="Rectangle-4" stroke="#FFFFFF" fill="#FFFFFF" x="0" y="0" width="540" height="175"></rect>
            <circle id="Oval" stroke="#C1C1C2" stroke-width="3" cx="270" cy="84" r="78"></circle>
            <g id="Group" opacity="0.300000012" transform="translate(224.000000, 49.000000)">
                <path d="M49.4348341,56 C49.4348341,56 44.0535132,26 71.1526945,26 C98.2518757,26 92.4862675,56 92.4862675,56 L49.4348341,56 Z" id="Fill-1" fill="#FFFFFF"></path>
                <path d="M49.4348341,56 C49.4348341,56 44.0535132,26 71.1526945,26 C98.2518757,26 92.4862675,56 92.4862675,56 L49.4348341,56 Z" id="Stroke-3" stroke="#2F3132" stroke-width="3"></path>
                <path d="M35,12 C35,18.6274206 29.6274409,24 23,24 C16.3725592,24 11,18.6274206 11,12 C11,5.37213677 16.3725592,0 23,0 C29.6274409,0 35,5.37213677 35,12" id="Fill-5" fill="#FFFFFF"></path>
                <path d="M35,12 C35,18.6274206 29.6274409,24 23,24 C16.3725592,24 11,18.6274206 11,12 C11,5.37213677 16.3725592,0 23,0 C29.6274409,0 35,5.37213677 35,12 Z" id="Stroke-7" stroke="#2F3132" stroke-width="3"></path>
                <path d="M83,12 C83,18.6274206 77.6274408,24 71.0000001,24 C64.3725592,24 59,18.6274206 59,12 C59,5.37213677 64.3725592,0 71.0000001,0 C77.6274408,0 83,5.37213677 83,12" id="Fill-9" fill="#FFFFFF"></path>
                <path d="M83,12 C83,18.6274206 77.6274408,24 71.0000001,24 C64.3725592,24 59,18.6274206 59,12 C59,5.37213677 64.3725592,0 71.0000001,0 C77.6274408,0 83,5.37213677 83,12 Z" id="Stroke-11" stroke="#2F3132" stroke-width="3"></path>
                <path d="M0.434833338,56 C0.434833338,56 -4.94647772,26 22.1526536,26 C49.2522177,26 43.4861873,56 43.4861873,56 L0.434833338,56 Z" id="Fill-13" fill="#FFFFFF"></path>
                <path d="M0.434833338,56 C0.434833338,56 -4.94647772,26 22.1526536,26 C49.2522177,26 43.4861873,56 43.4861873,56 L0.434833338,56 Z" id="Stroke-15" stroke="#2F3132" stroke-width="3"></path>
                <path d="M59,27 C59,33.6274206 53.6274409,39 47,39 C40.3725592,39 35,33.6274206 35,27 C35,20.3725794 40.3725592,15 47,15 C53.6274409,15 59,20.3725794 59,27" id="Fill-17" fill="#FFFFFF"></path>
                <path d="M59,27 C59,33.6274206 53.6274409,39 47,39 C40.3725592,39 35,33.6274206 35,27 C35,20.3725794 40.3725592,15 47,15 C53.6274409,15 59,20.3725794 59,27 Z" id="Stroke-19" stroke="#2F3132" stroke-width="3"></path>
                <path d="M25.4349118,70 C25.4349118,70 20.0531257,40 47.1529031,40 C74.2522474,40 68.4861718,70 68.4861718,70 L25.4349118,70 Z" id="Fill-21" fill="#FFFFFF"></path>
                <path d="M25.4349118,70 C25.4349118,70 20.0531257,40 47.1529031,40 C74.2522474,40 68.4861718,70 68.4861718,70 L25.4349118,70 Z" id="Stroke-23" stroke="#2F3132" stroke-width="3"></path>
            </g>
            <g id="Group-2" transform="translate(254.000000, 144.000000)">
                <circle id="Oval" fill="#C1C1C2" cx="15.5" cy="15.5" r="15.5"></circle>
                <polygon id="1" fill="#FFFFFF" points="11.5 12.301 11.5 9.325 15.4525 7 17.66125 7 17.66125 23.275 14.5225 23.275 14.5225 10.627"></polygon>
            </g>
        </g>
    </g>
</svg>