<?xml version="1.0" encoding="UTF-8"?>
<svg width="542px" height="177px" viewBox="0 0 542 177" version="1.1" xmlns="http://www.w3.org/2000/svg" xmlns:xlink="http://www.w3.org/1999/xlink">
    <!-- Generator: Sketch 52.6 (67491) - http://www.bohemiancoding.com/sketch -->
    <title>step-2</title>
    <desc>Created with Sketch.</desc>
    <defs>
        <polygon id="path-1" points="0 62 96.4785177 62 96.4785177 0 0 0"></polygon>
        <polygon id="path-3" points="0 62 96.4785177 62 96.4785177 0 0 0"></polygon>
        <polygon id="path-5" points="0 62 96.4785177 62 96.4785177 0 0 0"></polygon>
        <polygon id="path-7" points="0 62 96.4785177 62 96.4785177 0 0 0"></polygon>
        <polygon id="path-9" points="0 62 96.4785177 62 96.4785177 0 0 0"></polygon>
        <polygon id="path-11" points="0 62 96.4785177 62 96.4785177 0 0 0"></polygon>
        <polygon id="path-13" points="0 62 96.4785177 62 96.4785177 0 0 0"></polygon>
        <polygon id="path-15" points="0 62 96.4785177 62 96.4785177 0 0 0"></polygon>
        <polygon id="path-17" points="0 62 96.4785177 62 96.4785177 0 0 0"></polygon>
        <polygon id="path-19" points="0 62 96.4785177 62 96.4785177 0 0 0"></polygon>
    </defs>
    <g id="Page-1" stroke="none" stroke-width="1" fill="none" fill-rule="evenodd">
        <g id="step-2" transform="translate(1.000000, 1.000000)">
            <rect id="Rectangle-4-Copy-2" stroke="#FFFFFF" fill="#FFFFFF" x="0" y="0" width="540" height="175"></rect>
            <circle id="Oval" stroke="#C1C1C2" stroke-width="3" cx="270" cy="84" r="78"></circle>
            <g id="Group" opacity="0.300000012" transform="translate(227.000000, 53.000000)">
                <path d="M80.2158507,54 L4.784455,54 C2.6943585,54 1,52.4250727 1,50.4821213 L1,45.0104668 L1,4.51757805 C1,2.57492724 2.6943585,1 4.784455,1 L80.2158507,1 C82.3056413,1 84,2.57492724 84,4.51757805 L84,50.4821213 C84,52.4250727 82.3056413,54 80.2158507,54 Z" id="Stroke-1" stroke="#2F3132" stroke-width="3"></path>
                <path d="M86,44.5 L1,44.5" id="Stroke-3" stroke="#2F3132" stroke-width="3"></path>
                <polygon id="Stroke-5" stroke="#2F3132" stroke-width="3" points="36.7176333 54 34 61 55 61 51.5410084 54"></polygon>
                <polygon id="Fill-7" fill="#2F3132" points="3 51 6 51 6 49 3 49"></polygon>
                <polygon id="Fill-9" fill="#2F3132" points="7 51 10 51 10 49 7 49"></polygon>
                <polygon id="Fill-11" fill="#2F3132" points="11 51 14 51 14 49 11 49"></polygon>
                <path d="M7.67334728,13 L20.3266527,13 C20.6983997,13 21,12.552967 21,12 C21,11.447033 20.6983997,11 20.3266527,11 L7.67334728,11 C7.3016004,11 7,11.447033 7,12 C7,12.552967 7.3016004,13 7.67334728,13" id="Fill-13" fill="#2F3132"></path>
                <path d="M7,16 C7,16.552967 7.3182208,17 7.71045382,17 L34.2895462,17 C34.6817791,17 35,16.552967 35,16 C35,15.447033 34.6817791,15 34.2895462,15 L7.71045382,15 C7.3182208,15 7,15.447033 7,16" id="Fill-15" fill="#2F3132"></path>
                <path d="M7,18.9997801 C7,19.5533084 7.3182208,20 7.71045382,20 L34.2895462,20 C34.6817791,20 35,19.5533084 35,18.9997801 C35,18.4466916 34.6817791,18 34.2895462,18 L7.71045382,18 C7.3182208,18 7,18.4466916 7,18.9997801" id="Fill-17" fill="#2F3132"></path>
                <path d="M7,23.0002198 C7,23.5533084 7.3182208,24 7.71045382,24 L34.2895462,24 C34.6817791,24 35,23.5533084 35,23.0002198 C35,22.4466916 34.6817791,22 34.2895462,22 L7.71045382,22 C7.3182208,22 7,22.4466916 7,23.0002198" id="Fill-19" fill="#2F3132"></path>
                <path d="M7,27 C7,27.552967 7.3182208,28 7.71045382,28 L34.2895462,28 C34.6817791,28 35,27.552967 35,27 C35,26.447033 34.6817791,26 34.2895462,26 L7.71045382,26 C7.3182208,26 7,26.447033 7,27" id="Fill-21" fill="#2F3132"></path>
                <path d="M81.4258589,61 L67.5741407,61 C65.0479953,61 63,58.9548552 63,56.4322256 L63,25.5677744 C63,23.0445358 65.0479953,21 67.5741407,21 L81.4258589,21 C83.9520044,21 86,23.0445358 86,25.5677744 L86,56.4322256 C86,58.9548552 83.9520044,61 81.4258589,61" id="Fill-23" fill="#FFFFFF"></path>
                <path d="M81.4258589,61 L67.5741407,61 C65.0479953,61 63,58.9548552 63,56.4322256 L63,25.5677744 C63,23.0445358 65.0479953,21 67.5741407,21 L81.4258589,21 C83.9520044,21 86,23.0445358 86,25.5677744 L86,56.4322256 C86,58.9548552 83.9520044,61 81.4258589,61 Z" id="Stroke-25" stroke="#2F3132" stroke-width="3"></path>
                <path d="M86,26.5 L63,26.5" id="Stroke-27" stroke="#2F3132" stroke-width="3"></path>
                <path d="M86,54.5 L63,54.5" id="Stroke-29" stroke="#2F3132" stroke-width="3"></path>
                <g id="Fill-31-Clipped" transform="translate(0.000000, 0.000000)">
                    <mask id="mask-2" fill="white">
                        <use xlink:href="#path-1"></use>
                    </mask>
                    <g id="path-1"></g>
                    <polygon id="Fill-31" fill="#2F3132" mask="url(#mask-2)" points="72.905748 58.6947586 76.9409505 58.6947586 76.9409505 56.8830148 72.905748 56.8830148"></polygon>
                </g>
                <g id="Fill-33-Clipped" transform="translate(0.000000, 0.000000)">
                    <mask id="mask-4" fill="white">
                        <use xlink:href="#path-3"></use>
                    </mask>
                    <g id="path-1"></g>
                    <polygon id="Fill-33" fill="#FFFFFF" mask="url(#mask-4)" points="96.0239096 44.397864 84.0849588 44.397864 81.7566189 44.397864 77.1605425 47.8723074 77.1605425 44.397864 71.675734 44.397864 71.675734 31.6689281 84.0849588 31.6689281 96.0239096 31.6689281"></polygon>
                </g>
                <g id="Stroke-34-Clipped" transform="translate(0.000000, 0.000000)">
                    <mask id="mask-6" fill="white">
                        <use xlink:href="#path-5"></use>
                    </mask>
                    <g id="path-1"></g>
                    <polygon id="Stroke-34" stroke="#2F3132" stroke-width="3" mask="url(#mask-6)" points="96.0239096 44.397864 84.0849588 44.397864 81.7566189 44.397864 77.1605425 47.8723074 77.1605425 44.397864 71.675734 44.397864 71.675734 31.6689281 84.0849588 31.6689281 96.0239096 31.6689281"></polygon>
                </g>
                <g id="Fill-35-Clipped" transform="translate(0.000000, 0.000000)">
                    <mask id="mask-8" fill="white">
                        <use xlink:href="#path-7"></use>
                    </mask>
                    <g id="path-1"></g>
                    <path d="M84.5162953,37.4492828 L88.3799929,37.4492828 C88.7605753,37.4492828 89.069041,37.1386719 89.069041,36.7544551 C89.069041,36.3702384 88.7605753,36.0596276 88.3799929,36.0596276 L84.5162953,36.0596276 C84.1357129,36.0596276 83.8269445,36.3702384 83.8269445,36.7544551 C83.8269445,37.1386719 84.1357129,37.4492828 84.5162953,37.4492828" id="Fill-35" fill="#2F3132" mask="url(#mask-8)"></path>
                </g>
                <g id="Fill-36-Clipped" transform="translate(0.000000, 0.000000)">
                    <mask id="mask-10" fill="white">
                        <use xlink:href="#path-9"></use>
                    </mask>
                    <g id="path-1"></g>
                    <path d="M83.8268231,39.3125202 C83.8268231,39.696737 84.1358947,40.0073478 84.5161739,40.0073478 L91.9711628,40.0073478 C92.3517452,40.0073478 92.6602104,39.696737 92.6602104,39.3125202 C92.6602104,38.9283035 92.3517452,38.6176926 91.9711628,38.6176926 L84.5161739,38.6176926 C84.1358947,38.6176926 83.8268231,38.9283035 83.8268231,39.3125202" id="Fill-36" fill="#2F3132" mask="url(#mask-10)"></path>
                </g>
                <g id="Fill-37-Clipped" transform="translate(0.000000, 0.000000)">
                    <mask id="mask-12" fill="white">
                        <use xlink:href="#path-11"></use>
                    </mask>
                    <g id="path-1"></g>
                    <path d="M80.834889,36.0510453 C80.834889,36.5507104 80.4330957,36.9553902 79.9373692,36.9553902 C79.4419452,36.9553902 79.0401526,36.5507104 79.0401526,36.0510453 C79.0401526,35.5513803 79.4419452,35.1463951 79.9373692,35.1463951 C80.4330957,35.1463951 80.834889,35.5513803 80.834889,36.0510453" id="Fill-37" fill="#2F3132" mask="url(#mask-12)"></path>
                </g>
                <g id="Fill-38-Clipped" transform="translate(0.000000, 0.000000)">
                    <mask id="mask-14" fill="white">
                        <use xlink:href="#path-13"></use>
                    </mask>
                    <g id="path-1"></g>
                    <path d="M80.834889,40.1741981 C80.834889,40.673863 80.4330957,41.0788483 79.9373692,41.0788483 C79.4419452,41.0788483 79.0401526,40.673863 79.0401526,40.1741981 C79.0401526,39.6748384 79.4419452,39.2698532 79.9373692,39.2698532 C80.4330957,39.2698532 80.834889,39.6748384 80.834889,40.1741981" id="Fill-38" fill="#2F3132" mask="url(#mask-14)"></path>
                </g>
                <g id="Fill-39-Clipped" transform="translate(0.000000, 0.000000)">
                    <mask id="mask-16" fill="white">
                        <use xlink:href="#path-15"></use>
                    </mask>
                    <g id="path-1"></g>
                    <path d="M77.1073036,38.1382769 C77.1073036,38.6379418 76.7055103,39.0429271 76.2097838,39.0429271 C75.7143605,39.0429271 75.3125672,38.6379418 75.3125672,38.1382769 C75.3125672,37.6386118 75.7143605,37.2336266 76.2097838,37.2336266 C76.7055103,37.2336266 77.1073036,37.6386118 77.1073036,38.1382769" id="Fill-39" fill="#2F3132" mask="url(#mask-16)"></path>
                </g>
                <g id="Stroke-40-Clipped" transform="translate(0.000000, 0.000000)">
                    <mask id="mask-18" fill="white">
                        <use xlink:href="#path-17"></use>
                    </mask>
                    <g id="path-1"></g>
                    <path d="M76.1408791,38.2077596 L79.9373088,35.9116217" id="Stroke-40" stroke="#2F3132" mask="url(#mask-18)"></path>
                </g>
                <g id="Stroke-41-Clipped" transform="translate(0.000000, 0.000000)">
                    <mask id="mask-20" fill="white">
                        <use xlink:href="#path-19"></use>
                    </mask>
                    <g id="path-1"></g>
                    <path d="M76.1408791,38.2077596 L79.8718582,40.2549813" id="Stroke-41" stroke="#2F3132" mask="url(#mask-20)"></path>
                </g>
            </g>
            <g id="Group-2" transform="translate(254.000000, 144.000000)">
                <circle id="Oval" fill="#C1C1C2" cx="15.5" cy="15.5" r="15.5"></circle>
                <path d="M13.22925,11.36925 L10.34625,10.509 C11.04375,8.277 13.08975,6.7425 15.4845,6.7425 C18.2745,6.7425 20.6925,8.835 20.6925,11.7645 C20.6925,13.74075 19.69275,15.18225 18.6,16.43775 L15.13575,20.46 L20.80875,20.46 L20.80875,23.25 L10.23,23.25 L10.23,21.39 L15.9495,14.90325 C17.205,13.485 17.55375,12.555 17.55375,11.718 C17.55375,10.57875 16.67025,9.5325 15.438,9.5325 C14.34525,9.5325 13.55475,10.2765 13.22925,11.36925 Z" id="2" fill="#FFFFFF"></path>
            </g>
        </g>
    </g>
</svg>